<svg width="272" height="35" viewBox="0 0 272 35" fill="none" xmlns="http://www.w3.org/2000/svg">
<g clip-path="url(#clip0_5_2)">
<path d="M83.325 10.575L76.75 28H74.125L67.55 10.575H69.975L75.45 25.6L80.925 10.575H83.325ZM97.9695 14.3V28H95.6945V25.975C95.2612 26.675 94.6529 27.225 93.8695 27.625C93.1029 28.0083 92.2529 28.2 91.3195 28.2C90.2529 28.2 89.2945 27.9833 88.4445 27.55C87.5945 27.1 86.9195 26.4333 86.4195 25.55C85.9362 24.6667 85.6945 23.5917 85.6945 22.325V14.3H87.9445V22.025C87.9445 23.375 88.2862 24.4167 88.9695 25.15C89.6529 25.8667 90.5862 26.225 91.7695 26.225C92.9862 26.225 93.9445 25.85 94.6445 25.1C95.3445 24.35 95.6945 23.2583 95.6945 21.825V14.3H97.9695ZM104.086 9.5V28H101.811V9.5H104.086ZM114.638 14.05C116.305 14.05 117.655 14.5583 118.688 15.575C119.721 16.575 120.238 18.025 120.238 19.925V28H117.988V20.25C117.988 18.8833 117.646 17.8417 116.963 17.125C116.28 16.3917 115.346 16.025 114.163 16.025C112.963 16.025 112.005 16.4 111.288 17.15C110.588 17.9 110.238 18.9917 110.238 20.425V28H107.963V14.3H110.238V16.25C110.688 15.55 111.296 15.0083 112.063 14.625C112.846 14.2417 113.705 14.05 114.638 14.05ZM136.454 20.625C136.454 21.0583 136.429 21.5167 136.379 22H125.429C125.513 23.35 125.971 24.4083 126.804 25.175C127.654 25.925 128.679 26.3 129.879 26.3C130.863 26.3 131.679 26.075 132.329 25.625C132.996 25.1583 133.463 24.5417 133.729 23.775H136.179C135.813 25.0917 135.079 26.1667 133.979 27C132.879 27.8167 131.513 28.225 129.879 28.225C128.579 28.225 127.413 27.9333 126.379 27.35C125.363 26.7667 124.563 25.9417 123.979 24.875C123.396 23.7917 123.104 22.5417 123.104 21.125C123.104 19.7083 123.388 18.4667 123.954 17.4C124.521 16.3333 125.313 15.5167 126.329 14.95C127.363 14.3667 128.546 14.075 129.879 14.075C131.179 14.075 132.329 14.3583 133.329 14.925C134.329 15.4917 135.096 16.275 135.629 17.275C136.179 18.2583 136.454 19.375 136.454 20.625ZM134.104 20.15C134.104 19.2833 133.913 18.5417 133.529 17.925C133.146 17.2917 132.621 16.8167 131.954 16.5C131.304 16.1667 130.579 16 129.779 16C128.629 16 127.646 16.3667 126.829 17.1C126.029 17.8333 125.571 18.85 125.454 20.15H134.104ZM141.732 16.525C142.132 15.7417 142.699 15.1333 143.432 14.7C144.182 14.2667 145.091 14.05 146.157 14.05V16.4H145.557C143.007 16.4 141.732 17.7833 141.732 20.55V28H139.457V14.3H141.732V16.525ZM147.933 21.1C147.933 19.7 148.217 18.475 148.783 17.425C149.35 16.3583 150.125 15.5333 151.108 14.95C152.108 14.3667 153.217 14.075 154.433 14.075C155.633 14.075 156.675 14.3333 157.558 14.85C158.442 15.3667 159.1 16.0167 159.533 16.8V14.3H161.833V28H159.533V25.45C159.083 26.25 158.408 26.9167 157.508 27.45C156.625 27.9667 155.592 28.225 154.408 28.225C153.192 28.225 152.092 27.925 151.108 27.325C150.125 26.725 149.35 25.8833 148.783 24.8C148.217 23.7167 147.933 22.4833 147.933 21.1ZM159.533 21.125C159.533 20.0917 159.325 19.1917 158.908 18.425C158.492 17.6583 157.925 17.075 157.208 16.675C156.508 16.2583 155.733 16.05 154.883 16.05C154.033 16.05 153.258 16.25 152.558 16.65C151.858 17.05 151.3 17.6333 150.883 18.4C150.467 19.1667 150.258 20.0667 150.258 21.1C150.258 22.15 150.467 23.0667 150.883 23.85C151.3 24.6167 151.858 25.2083 152.558 25.625C153.258 26.025 154.033 26.225 154.883 26.225C155.733 26.225 156.508 26.025 157.208 25.625C157.925 25.2083 158.492 24.6167 158.908 23.85C159.325 23.0667 159.533 22.1583 159.533 21.125ZM167.953 16.85C168.42 16.0333 169.103 15.3667 170.003 14.85C170.903 14.3333 171.928 14.075 173.078 14.075C174.311 14.075 175.42 14.3667 176.403 14.95C177.386 15.5333 178.161 16.3583 178.728 17.425C179.295 18.475 179.578 19.7 179.578 21.1C179.578 22.4833 179.295 23.7167 178.728 24.8C178.161 25.8833 177.378 26.725 176.378 27.325C175.395 27.925 174.295 28.225 173.078 28.225C171.895 28.225 170.853 27.9667 169.953 27.45C169.07 26.9333 168.403 26.275 167.953 25.475V28H165.678V9.5H167.953V16.85ZM177.253 21.1C177.253 20.0667 177.045 19.1667 176.628 18.4C176.211 17.6333 175.645 17.05 174.928 16.65C174.228 16.25 173.453 16.05 172.603 16.05C171.77 16.05 170.995 16.2583 170.278 16.675C169.578 17.075 169.011 17.6667 168.578 18.45C168.161 19.2167 167.953 20.1083 167.953 21.125C167.953 22.1583 168.161 23.0667 168.578 23.85C169.011 24.6167 169.578 25.2083 170.278 25.625C170.995 26.025 171.77 26.225 172.603 26.225C173.453 26.225 174.228 26.025 174.928 25.625C175.645 25.2083 176.211 24.6167 176.628 23.85C177.045 23.0667 177.253 22.15 177.253 21.1ZM183.747 12.075C183.314 12.075 182.947 11.925 182.647 11.625C182.347 11.325 182.197 10.9583 182.197 10.525C182.197 10.0917 182.347 9.725 182.647 9.425C182.947 9.125 183.314 8.975 183.747 8.975C184.164 8.975 184.514 9.125 184.797 9.425C185.097 9.725 185.247 10.0917 185.247 10.525C185.247 10.9583 185.097 11.325 184.797 11.625C184.514 11.925 184.164 12.075 183.747 12.075ZM184.847 14.3V28H182.572V14.3H184.847ZM191 9.5V28H188.725V9.5H191ZM196.052 12.075C195.619 12.075 195.252 11.925 194.952 11.625C194.652 11.325 194.502 10.9583 194.502 10.525C194.502 10.0917 194.652 9.725 194.952 9.425C195.252 9.125 195.619 8.975 196.052 8.975C196.469 8.975 196.819 9.125 197.102 9.425C197.402 9.725 197.552 10.0917 197.552 10.525C197.552 10.9583 197.402 11.325 197.102 11.625C196.819 11.925 196.469 12.075 196.052 12.075ZM197.152 14.3V28H194.877V14.3H197.152ZM203.804 16.175V24.25C203.804 24.9167 203.946 25.3917 204.229 25.675C204.513 25.9417 205.004 26.075 205.704 26.075H207.379V28H205.329C204.063 28 203.113 27.7083 202.479 27.125C201.846 26.5417 201.529 25.5833 201.529 24.25V16.175H199.754V14.3H201.529V10.85H203.804V14.3H207.379V16.175H203.804ZM221.936 14.3L213.686 34.45H211.336L214.036 27.85L208.511 14.3H211.036L215.336 25.4L219.586 14.3H221.936ZM236.313 10.575C238.213 10.575 239.855 10.9333 241.238 11.65C242.638 12.35 243.705 13.3583 244.438 14.675C245.188 15.9917 245.563 17.5417 245.563 19.325C245.563 21.1083 245.188 22.6583 244.438 23.975C243.705 25.275 242.638 26.275 241.238 26.975C239.855 27.6583 238.213 28 236.313 28H230.888V10.575H236.313ZM236.313 26.125C238.563 26.125 240.28 25.5333 241.463 24.35C242.646 23.15 243.238 21.475 243.238 19.325C243.238 17.1583 242.638 15.4667 241.438 14.25C240.255 13.0333 238.546 12.425 236.313 12.425H233.163V26.125H236.313ZM257.289 19.025C257.922 19.125 258.497 19.3833 259.014 19.8C259.547 20.2167 259.964 20.7333 260.264 21.35C260.58 21.9667 260.739 22.625 260.739 23.325C260.739 24.2083 260.514 25.0083 260.064 25.725C259.614 26.425 258.955 26.9833 258.089 27.4C257.239 27.8 256.23 28 255.064 28H248.564V10.575H254.814C255.997 10.575 257.005 10.775 257.839 11.175C258.672 11.5583 259.297 12.0833 259.714 12.75C260.13 13.4167 260.339 14.1667 260.339 15C260.339 16.0333 260.055 16.8917 259.489 17.575C258.939 18.2417 258.205 18.725 257.289 19.025ZM250.839 18.1H254.664C255.73 18.1 256.555 17.85 257.139 17.35C257.722 16.85 258.014 16.1583 258.014 15.275C258.014 14.3917 257.722 13.7 257.139 13.2C256.555 12.7 255.714 12.45 254.614 12.45H250.839V18.1ZM254.864 26.125C255.997 26.125 256.88 25.8583 257.514 25.325C258.147 24.7917 258.464 24.05 258.464 23.1C258.464 22.1333 258.13 21.375 257.464 20.825C256.797 20.2583 255.905 19.975 254.789 19.975H250.839V26.125H254.864Z" fill="#441C99"/>
<path d="M56.3251 27.7426L52.3696 20.893H51.9717V27.7426H47.0331V10.6884L51.9717 3V18.9126C52.9547 17.7128 56.2666 13.158 56.2666 13.158H62.3637L56.5825 19.2505L62.5626 27.7543H56.3251V27.7426ZM40.6318 13.2046H45.5235L39.7892 27.696C38.0806 32.0528 35.6347 35 31.9835 35C30.5792 35 29.3972 34.6389 28.7769 34.2894L30.743 31.2606C31.0356 31.2956 31.3398 31.3072 31.6441 31.3072C33.3293 31.3072 34.5932 29.6764 35.4124 27.7426L29.3972 13.2046H34.9326L37.0976 19.6931C37.5189 20.9279 37.8231 23.281 37.8231 23.281C37.8231 23.281 38.2093 21.0095 38.6072 19.7747L40.6318 13.2046ZM23.6863 27.7426V19.4368C23.6863 17.538 22.8437 16.6411 21.2404 16.6411C20.4563 16.6411 19.6371 16.8624 19.0754 17.2002V27.7426H14.1369V13.3444L18.9701 12.9483L18.853 15.3014H19.0169C20.0584 13.9035 21.8255 12.8435 23.932 12.8435C26.4598 12.8435 28.6482 14.4044 28.6482 18.0972V27.7426H23.6863ZM5.27792 28.0572C3.17143 28.0572 1.46284 27.696 0 26.9971L0.444703 23.6422C1.98946 24.3993 3.73316 24.7605 5.196 24.7605C6.26094 24.7605 6.96311 24.3993 6.96311 23.7586C6.96311 21.9181 0.30427 22.3608 0.30427 17.5497C0.30427 14.4743 3.13632 12.8551 6.68224 12.8551C8.44935 12.8551 10.275 13.3327 11.4569 13.7521L10.9771 17.0488C9.73664 16.5712 8.05146 16.1285 6.64713 16.1285C5.78113 16.1285 5.07897 16.4314 5.07897 16.9905C5.07897 18.8078 11.8782 18.4467 11.8782 23.1412C11.8782 26.2632 9.093 28.0572 5.27792 28.0572Z" fill="#441C99"/>
</g>
<defs>
<clipPath id="clip0_5_2">
<rect width="272" height="35" fill="white"/>
</clipPath>
</defs>
</svg>
